<?xml version="1.0" encoding="UTF-8" standalone="no"?>
<!-- Generator: Adobe Illustrator 16.2.1, SVG Export Plug-In . SVG Version: 6.00 Build 0)  -->

<svg
   version="1.1"
   id="Layer_1"
   x="0px"
   y="0px"
   width="864px"
   height="864px"
   viewBox="0 0 864 864"
   enable-background="new 0 0 864 864"
   xml:space="preserve"
   sodipodi:docname="brad-craciun.svg"
   inkscape:version="1.4.2 (f4327f4, 2025-05-13)"
   xmlns:inkscape="http://www.inkscape.org/namespaces/inkscape"
   xmlns:sodipodi="http://sodipodi.sourceforge.net/DTD/sodipodi-0.dtd"
   xmlns="http://www.w3.org/2000/svg"
   xmlns:svg="http://www.w3.org/2000/svg"><defs
   id="defs1"><inkscape:path-effect
     effect="fillet_chamfer"
     id="path-effect67"
     is_visible="true"
     lpeversion="1"
     nodesatellites_param="F,0,0,1,0,0,0,1 @ F,0,0,1,0,0,0,1 @ F,0,0,1,0,0,0,1 @ F,0,0,1,0,0,0,1 @ F,0,0,1,0,0,0,1 @ F,0,0,1,0,0,0,1 @ F,0,0,1,0,0,0,1 @ F,0,0,1,0,0,0,1 @ F,0,0,1,0,0,0,1 @ F,0,0,1,0,0,0,1 @ F,0,0,1,0,0,0,1 @ F,0,0,1,0,0,0,1 @ F,0,0,1,0,0,0,1 @ F,0,0,1,0,0,0,1 @ F,0,0,1,0,0,0,1 @ F,0,0,1,0,0,0,1 @ F,0,0,1,0,0,0,1 @ F,0,0,1,0,0,0,1 @ F,0,0,1,0,0,0,1 @ F,0,0,1,0,0,0,1 @ F,0,0,1,0,0,0,1 @ F,0,0,1,0,0,0,1 @ F,0,0,1,0,0,0,1 @ F,0,0,1,0,0,0,1 @ F,0,0,1,0,0,0,1 @ F,0,0,1,0,0,0,1 @ F,0,0,1,0,0,0,1 @ F,0,0,1,0,0,0,1 @ F,0,0,1,0,0,0,1 @ F,0,0,1,0,0,0,1 @ F,0,0,1,0,0,0,1 @ F,0,0,1,0,0,0,1 @ F,0,0,1,0,0,0,1 @ F,0,0,1,0,0,0,1 @ F,0,0,1,0,0,0,1 @ F,0,0,1,0,0,0,1"
     radius="0"
     unit="px"
     method="auto"
     mode="F"
     chamfer_steps="1"
     flexible="false"
     use_knot_distance="true"
     apply_no_radius="true"
     apply_with_radius="true"
     only_selected="false"
     hide_knots="false" /><inkscape:path-effect
     effect="bspline"
     id="path-effect64"
     is_visible="true"
     lpeversion="1.3"
     weight="33.333333"
     steps="2"
     helper_size="0"
     apply_no_weight="true"
     apply_with_weight="true"
     only_selected="false"
     uniform="false" /><inkscape:path-effect
     effect="bspline"
     id="path-effect62"
     is_visible="true"
     lpeversion="1.3"
     weight="33.333333"
     steps="2"
     helper_size="0"
     apply_no_weight="true"
     apply_with_weight="true"
     only_selected="false"
     uniform="false" /><inkscape:path-effect
     effect="bspline"
     id="path-effect60"
     is_visible="true"
     lpeversion="1.3"
     weight="33.333333"
     steps="2"
     helper_size="0"
     apply_no_weight="true"
     apply_with_weight="true"
     only_selected="false"
     uniform="false" /><inkscape:path-effect
     effect="bspline"
     id="path-effect58"
     is_visible="true"
     lpeversion="1.3"
     weight="33.333333"
     steps="2"
     helper_size="0"
     apply_no_weight="true"
     apply_with_weight="true"
     only_selected="false"
     uniform="false" /><inkscape:path-effect
     effect="bspline"
     id="path-effect56"
     is_visible="true"
     lpeversion="1.3"
     weight="33.333333"
     steps="2"
     helper_size="0"
     apply_no_weight="true"
     apply_with_weight="true"
     only_selected="false"
     uniform="false" /><inkscape:path-effect
     effect="bspline"
     id="path-effect54"
     is_visible="true"
     lpeversion="1.3"
     weight="33.333333"
     steps="2"
     helper_size="0"
     apply_no_weight="true"
     apply_with_weight="true"
     only_selected="false"
     uniform="false" /><inkscape:path-effect
     effect="bspline"
     id="path-effect52"
     is_visible="true"
     lpeversion="1.3"
     weight="33.333333"
     steps="2"
     helper_size="0"
     apply_no_weight="true"
     apply_with_weight="true"
     only_selected="false"
     uniform="false" /><inkscape:path-effect
     effect="bspline"
     id="path-effect50"
     is_visible="true"
     lpeversion="1.3"
     weight="33.333333"
     steps="2"
     helper_size="0"
     apply_no_weight="true"
     apply_with_weight="true"
     only_selected="false"
     uniform="false" /><inkscape:path-effect
     effect="bspline"
     id="path-effect48"
     is_visible="true"
     lpeversion="1.3"
     weight="33.333333"
     steps="2"
     helper_size="0"
     apply_no_weight="true"
     apply_with_weight="true"
     only_selected="false"
     uniform="false" /><inkscape:path-effect
     effect="bspline"
     id="path-effect46"
     is_visible="true"
     lpeversion="1.3"
     weight="33.333333"
     steps="2"
     helper_size="0"
     apply_no_weight="true"
     apply_with_weight="true"
     only_selected="false"
     uniform="false" /><inkscape:path-effect
     effect="bspline"
     id="path-effect44"
     is_visible="true"
     lpeversion="1.3"
     weight="33.333333"
     steps="2"
     helper_size="0"
     apply_no_weight="true"
     apply_with_weight="true"
     only_selected="false"
     uniform="false" /><inkscape:path-effect
     effect="bspline"
     id="path-effect42"
     is_visible="true"
     lpeversion="1.3"
     weight="33.333333"
     steps="2"
     helper_size="0"
     apply_no_weight="true"
     apply_with_weight="true"
     only_selected="false"
     uniform="false" /><inkscape:path-effect
     effect="bspline"
     id="path-effect40"
     is_visible="true"
     lpeversion="1.3"
     weight="33.333333"
     steps="2"
     helper_size="0"
     apply_no_weight="true"
     apply_with_weight="true"
     only_selected="false"
     uniform="false" /><inkscape:path-effect
     effect="bspline"
     id="path-effect38"
     is_visible="true"
     lpeversion="1.3"
     weight="33.333333"
     steps="2"
     helper_size="0"
     apply_no_weight="true"
     apply_with_weight="true"
     only_selected="false"
     uniform="false" /><inkscape:path-effect
     effect="bspline"
     id="path-effect36"
     is_visible="true"
     lpeversion="1.3"
     weight="33.333333"
     steps="2"
     helper_size="0"
     apply_no_weight="true"
     apply_with_weight="true"
     only_selected="false"
     uniform="false" /><inkscape:path-effect
     effect="bspline"
     id="path-effect34"
     is_visible="true"
     lpeversion="1.3"
     weight="33.333333"
     steps="2"
     helper_size="0"
     apply_no_weight="true"
     apply_with_weight="true"
     only_selected="false"
     uniform="false" /><inkscape:path-effect
     effect="bspline"
     id="path-effect32"
     is_visible="true"
     lpeversion="1.3"
     weight="33.333333"
     steps="2"
     helper_size="0"
     apply_no_weight="true"
     apply_with_weight="true"
     only_selected="false"
     uniform="false" /><inkscape:path-effect
     effect="bspline"
     id="path-effect30"
     is_visible="true"
     lpeversion="1.3"
     weight="33.333333"
     steps="2"
     helper_size="0"
     apply_no_weight="true"
     apply_with_weight="true"
     only_selected="false"
     uniform="false" /><inkscape:path-effect
     effect="bspline"
     id="path-effect28"
     is_visible="true"
     lpeversion="1.3"
     weight="33.333333"
     steps="2"
     helper_size="0"
     apply_no_weight="true"
     apply_with_weight="true"
     only_selected="false"
     uniform="false" /><inkscape:path-effect
     effect="bspline"
     id="path-effect26"
     is_visible="true"
     lpeversion="1.3"
     weight="33.333333"
     steps="2"
     helper_size="0"
     apply_no_weight="true"
     apply_with_weight="true"
     only_selected="false"
     uniform="false" /><inkscape:path-effect
     effect="bspline"
     id="path-effect24"
     is_visible="true"
     lpeversion="1.3"
     weight="33.333333"
     steps="2"
     helper_size="0"
     apply_no_weight="true"
     apply_with_weight="true"
     only_selected="false"
     uniform="false" /><inkscape:path-effect
     effect="bspline"
     id="path-effect23"
     is_visible="true"
     lpeversion="1.3"
     weight="33.333333"
     steps="2"
     helper_size="0"
     apply_no_weight="true"
     apply_with_weight="true"
     only_selected="false"
     uniform="false" /><inkscape:path-effect
     effect="bspline"
     id="path-effect22"
     is_visible="true"
     lpeversion="1.3"
     weight="33.333333"
     steps="2"
     helper_size="0"
     apply_no_weight="true"
     apply_with_weight="true"
     only_selected="false"
     uniform="false" /></defs><sodipodi:namedview
   id="namedview1"
   pagecolor="#ffffff"
   bordercolor="#999999"
   borderopacity="1"
   inkscape:showpageshadow="2"
   inkscape:pageopacity="0"
   inkscape:pagecheckerboard="0"
   inkscape:deskcolor="#d1d1d1"
   inkscape:zoom="2.06875"
   inkscape:cx="348.76133"
   inkscape:cy="407.25075"
   inkscape:window-width="1920"
   inkscape:window-height="991"
   inkscape:window-x="-9"
   inkscape:window-y="-9"
   inkscape:window-maximized="1"
   inkscape:current-layer="Layer_1" />

<path
   id="path1"
   style="display:inline;fill:#f4eed7"
   d="m 372.15199,278.54324 c -3.1097,4.93314 -6.16342,9.9496 -9.12891,14.83985 -6.924,11.42 -14.08489,23.22964 -22.21289,34.18164 -5.568,7.505 -11.97122,14.75229 -19.57422,22.15429 -0.122,0.118 -0.17621,0.19924 -0.19921,0.24024 0.128,0.317 0.97128,1.02078 1.98828,1.30078 1.78,0.49 3.83265,0.73828 6.09765,0.73828 1.794,0 3.70011,-0.15494 5.66211,-0.46094 l 4.26758,-0.66406 -2.375,3.60547 c -11.22,17.045 -21.46333,30.08792 -32.23633,41.04492 -1.779,1.811 -3.59167,3.57695 -5.38867,5.25195 -0.134,0.125 -0.2713,0.24629 -0.4043,0.36329 -0.181,0.161 -0.43654,0.3892 -0.56054,0.5332 7.5e-4,0.002 0.003,0.008 0.004,0.01 0.48,1.29 1.75923,1.78033 3.95117,2.23633 2.29702,0.479 4.72572,0.72266 7.21876,0.72266 3.768,0 7.56239,-0.53861 11.27539,-1.59961 l 5.01757,-1.43555 -2.90234,4.33789 c -0.939,1.403 -1.88489,2.80332 -2.83789,4.19532 -12.035,17.595 -23.74211,32.13431 -35.78711,44.44531 -1.978,2.02 -3.96611,3.98394 -5.91211,5.83594 -0.251,0.238 -0.56955,0.4902 -0.93555,0.7832 -0.492,0.393 -1.60686,1.28476 -1.88086,1.75976 0.137,0.807 1.84772,1.37344 2.88672,1.64844 3.142,0.826 6.72414,1.23047 10.95118,1.23047 1.09798,0 2.25917,-0.027 3.45117,-0.084 l 3.87304,-0.18164 -2.21093,3.18359 c -16.669,24.012 -32.61314,43.70132 -48.74414,60.19726 -3.184,3.25401 -6.43969,6.45277 -9.67969,9.50977 -0.255,0.24 -0.54752,0.49186 -0.85352,0.75586 -0.558,0.484 -1.86439,1.6155 -1.90039,2.0625 0,0 0.0423,0.13861 0.32031,0.39063 1.628,1.479 4.75463,1.97699 7.26563,2.375 l 0.68359,0.11132 c 3.788,0.617 7.68957,0.93164 11.60157,0.93164 l 0.50586,-0.002 c 16.673,-0.115 33.34526,-6.07997 46.94726,-16.79297 l 2.02539,-1.5957 0.93945,2.40039 c 2.22,5.672 4.30622,11.49023 6.32422,17.11523 1.092,3.043 2.22147,6.18949 3.35547,9.27149 l 0.23438,0.64062 c 0.809,2.203 1.64647,4.47996 2.60547,6.62696 l 0.11523,0.25781 c 0.333,0.754 0.70958,1.60867 1.14258,2.01367 l 0.002,0.002 c 0.0119,0.005 0.0952,0.0274 0.3418,0.0293 0.509,0 0.82583,-0.23384 1.67383,-0.96484 0.18,-0.154 0.36268,-0.31075 0.55468,-0.46875 2.062,-1.689 4.081,-3.39255 6,-5.06055 7.831,-6.803 15.07988,-13.91009 21.54688,-21.12109 l 1.33203,-1.48633 1.42773,1.39648 c 5.449,5.326 11.34408,10.38908 17.08008,15.28906 l -0.004,0.0313 c 8.25456,-4.59453 16.50894,-9.1886 24.76367,-13.78321 l -0.0371,-0.23047 c 1.475,-2.455 2.96537,-4.96945 4.48437,-7.56445 l 1.34766,-2.30078 1.74805,2.01172 c 6.104,7.023 12.64081,13.82012 19.42383,20.20312 3.34699,3.148 6.69789,6.13863 9.96289,8.89063 1.642,1.383 3.28381,2.72528 4.88281,3.98828 0.28,0.221 0.57662,0.4942 0.89062,0.7832 0.454,0.42 1.3896,1.28511 1.8086,1.41211 0.122,0.002 0.24232,0.006 0.36132,0.006 0.50302,0 0.61596,-0.0614 0.62696,-0.0664 l 0.002,-0.002 c 0.005,-0.004 0.0163,-0.0154 0.0312,-0.0371 0.874,-1.211 1.3525,-3.00423 1.8125,-4.74023 0.129,-0.479 0.25477,-0.94949 0.38477,-1.39649 1.071,-3.684 2.10165,-7.45747 3.09765,-11.10547 1.882,-6.889 3.82653,-14.00992 6.14453,-20.91992 l 0.8711,-2.5957 2.13867,1.71094 c 11.922,9.531 27.86453,14.78125 44.89453,14.78125 6.116,0 12.16266,-0.69069 17.97266,-2.05469 l 0.43359,-0.10352 c 1.452,-0.332 3.64603,-0.83578 4.33203,-1.80078 0.16893,-0.23649 0.19563,-0.41395 0.19336,-0.44531 v -0.002 c -0.777,-0.709 -1.589,-1.42038 -2.375,-2.10938 -0.567,-0.496 -1.13431,-0.99409 -1.69531,-1.49609 -6.677,-5.99 -13.35838,-12.4885 -19.85938,-19.3125 -13.071,-13.725 -26.114,-29.45099 -39.875,-48.08399 l -2.3125,-3.13281 4.37696,0.0937 c 0.271,0.006 0.54054,0.008 0.81054,0.008 2.238,0 4.57182,-0.16772 7.13282,-0.51172 l 0.18945,-0.0254 c 2.619,-0.352 5.58622,-0.75156 7.57422,-2.10156 0.367,-0.25 0.62664,-0.61122 0.68164,-0.94922 -0.221,-0.26 -0.71952,-0.64565 -0.97852,-0.84765 -0.235,-0.182 -0.45009,-0.34996 -0.62109,-0.50196 -3.187,-2.814 -6.36059,-5.77668 -9.43359,-8.80468 -12.418,-12.242 -24.48838,-26.75502 -37.98438,-45.66602 l -3.27148,-4.58203 5.38867,1.64062 c 3.928,1.197 8.14606,1.80469 12.53906,1.80469 2.279,0 4.60144,-0.16514 6.89844,-0.49414 l 0.38476,-0.0547 c 1.699,-0.237 4.54218,-0.63612 5.45118,-1.82812 0.174,-0.228 0.27264,-0.4933 0.30664,-0.6543 -0.617,-0.562 -1.23933,-1.11687 -1.86133,-1.67187 -0.814,-0.725 -1.65556,-1.47347 -2.47656,-2.23047 -12.353,-11.421 -24.22719,-25.56277 -37.36719,-44.50977 l -3.58984,-5.17578 5.86132,2.30469 c 3.47,1.364 7.23844,2.08398 10.89844,2.08398 1.362,0 2.72297,-0.098 4.04297,-0.29297 l 0.25586,-0.0371 c 1.538,-0.22501 3.28355,-0.47941 4.18555,-1.31641 0.486,-0.453 0.59456,-0.77269 0.60156,-0.80469 -0.007,-0.018 -0.0502,-0.0866 -0.16016,-0.18359 -3.511,-3.059 -6.94784,-6.38291 -10.21484,-9.87891 -6.163,-6.598 -12.17774,-14.16173 -18.92774,-23.80273 -5.021,-7.171 -9.8419,-14.63071 -14.5039,-21.84571 l -1.91016,-2.95507 c -2.56645,-3.96598 -4.83318,-7.44284 -7.0664,-10.78711 z" /><path
   style="display:inline;opacity:0.345776;fill:#aad400"
   d="m 369.96178,278.53239 2.65567,-15.10989 -17.30769,12.36263 8.69964,-23.71794 -20.6044,-11.90477 25.09158,-2.38095 7.50915,-22.52747 7.50916,22.71062 27.83883,2.38095 -23.26008,11.63004 6.59341,22.89377 -14.46886,-10.80586 3.20513,14.56044 z"
   id="path12"
   sodipodi:nodetypes="cccccccccccccc" /><path
   style="opacity:0.345776;fill:#aad400"
   d="m 397.83949,528.84549 c -1.81598,3.26876 -3.63196,6.53753 -5.44794,9.80629 -8.55546,4.762 -17.11057,9.52381 -25.66586,14.28572 -1.25104,10.69432 -3.99516,32.44552 -3.99516,32.44552 h 37.7724 l -8.11138,-46.97337"
   id="path21" /><path
   d="m 497.78866,535.91792 c -0.396,0.004 -0.8,0.008 -1.208,0.008 h -0.01 c -11.671,0 -28.546,-2.52 -42.668,-14.521 l -6.733,-5.723 -2.954,8.328 c -2.329,6.568 -5.103,16.625 -7.33,24.705 l -0.046,0.17 c -0.821,2.977 -1.655,6.002 -2.366,8.484 -10.737,-8.795 -22.191,-20.064 -32.151,-31.688 l -5.585,-6.518 -4.31,7.424 c -3.297,5.68 -7.733,13.045 -11.301,18.766 -2.235,3.586 -3.818,6.049 -4.937,7.73 -1.481,-1.275 -2.95,-2.531 -4.322,-3.703 -6.195,-5.289 -13.215,-11.283 -19.002,-17.043 l -4.578,-4.557 -4.282,4.838 c -7.293,8.238 -15.572,16.283 -24.663,23.969 -1.337,-3.51 -3.046,-8.258 -4.449,-12.152 l -0.094,-0.262 c -2.323,-6.449 -4.956,-13.758 -7.044,-18.953 l -3.101,-7.707 -6.419,5.273 c -16.393,13.469 -33.199,16.49 -44.412,16.654 -0.313,0.004 -0.625,0.006 -0.936,0.006 -3.675,0 -6.953,-0.291 -9.599,-0.678 12.679,-12.328 24.958,-26.213 37.468,-42.404 0.523,2.527 1.466,5.406 2.637,7.893 1.319,2.803 4.075,7.506 7.72,7.506 v 0 h 0.028 c 3.655,-0.023 6.355,-4.766 7.639,-7.588 1.748,-3.842 2.954,-8.607 2.934,-11.59 -0.028,-4.223 -2.6,-7.871 -6.274,-9.541 l 0.537,-5.936 c 2.738,0.664 5.393,1.66 8.093,2.709 l 1.733,0.678 c 4.145,1.621 8.427,3.295 12.835,4.42 l -0.177,6.965 c -3.734,1.279 -6.579,4.561 -7.108,8.623 -0.385,2.957 0.23,7.836 1.495,11.863 0.929,2.957 3.029,7.994 6.652,8.465 0.184,0.025 0.37,0.037 0.567,0.037 3.55,0 6.708,-4.311 8.273,-6.879 2.128,-3.49 3.872,-7.9 4.239,-10.723 0.365,-2.807 -0.396,-5.588 -2.146,-7.836 -0.781,-1.002 -1.724,-1.832 -2.774,-2.49 l 1.5,-6.529 c 0.861,0.035 1.723,0.053 2.564,0.053 4.958,0 10.189,-0.584 15.547,-1.736 1.08,-0.234 2.202,-0.51 3.339,-0.82 l 2.783,6.182 c -0.809,0.799 -1.5,1.723 -2.031,2.764 -1.294,2.535 -1.519,5.41 -0.633,8.092 1.654,5.006 9.179,15.01 14.719,15.01 0.498,0 0.981,-0.074 1.436,-0.225 3.469,-1.148 4.582,-6.488 4.937,-9.568 0.483,-4.193 0.167,-9.1 -0.767,-11.932 -1.31,-3.957 -4.807,-6.721 -8.909,-7.172 l -1.467,-6.482 c 0.836,-0.311 1.67,-0.623 2.507,-0.936 l 0.172,-0.064 c 7.576,-2.84 15.407,-5.775 23.555,-6.098 l 0.131,6.445 c -3.653,1.455 -6.362,4.867 -6.705,8.941 -0.244,2.939 0.567,7.738 1.973,11.668 1.057,2.955 3.385,7.955 7.1,8.266 0.121,0.01 0.241,0.014 0.364,0.014 3.604,0 6.611,-4.447 8.085,-7.1 1.999,-3.602 3.565,-8.15 3.81,-11.061 0.354,-4.236 -1.876,-8.109 -5.384,-10.092 l 1.099,-6.025 c 4.677,1.08 9.271,2.83 13.718,4.525 l 0.052,0.02 c 2.762,1.053 5.615,2.141 8.484,3.066 l -0.815,6.803 c -3.883,0.912 -6.973,3.916 -7.886,7.932 -0.66,2.906 -0.506,7.822 0.375,11.949 0.647,3.033 2.266,8.244 5.831,9.055 0.323,0.072 0.655,0.107 0.987,0.107 5.989,0 12.607,-11.65 13.68,-16.371 0.94,-4.145 -0.729,-8.289 -3.927,-10.742 l 2.086,-6.287 c 3.274,0.486 6.578,0.734 9.824,0.734 2.89,0 5.725,-0.197 8.43,-0.592 l 2.253,6.371 c -0.875,0.729 -1.642,1.59 -2.257,2.582 -1.501,2.418 -1.962,5.266 -1.3,8.018 1.121,4.672 7.848,16.199 13.824,16.199 0.354,0 0.706,-0.041 1.047,-0.121 3.553,-0.855 5.106,-6.086 5.716,-9.125 0.829,-4.139 0.922,-9.055 0.226,-11.953 -0.98,-4.086 -4.25,-7.109 -8.279,-7.893 l -0.948,-6.752 c 0.62,-0.246 1.225,-0.506 1.817,-0.777 16.457,21.252 32.233,38.688 48.58,53.703 -3.315,0.488 -7.313,0.875 -11.114,0.932 z"
   id="path7" /><path
   d="m 294.76566,459.94892 c -1.428,0.125 -2.808,0.199 -4.104,0.219 -0.156,0.004 -0.33,0.004 -0.51,0.004 -1.295,0 -2.64,-0.051 -3.939,-0.137 7.376,-7.391 14.094,-15.076 20.122,-22.574 1.344,2.582 3.138,4.617 5.173,4.617 v 0 h 0.021 c 4.404,-0.031 7.56,-9.553 7.533,-13.59 -0.013,-1.939 -0.784,-3.705 -2.029,-5.035 0.94,-1.293 1.857,-2.57 2.75,-3.828 0.235,0.092 0.469,0.182 0.69,0.266 l 1.194,0.467 c 2.833,1.109 5.76,2.256 8.784,3.055 l -0.113,4.436 c -2.603,1.021 -4.5,3.424 -4.856,6.178 -0.267,2.041 0.139,5.449 0.986,8.285 0.659,2.203 2.181,5.955 4.977,6.318 0.147,0.02 0.294,0.029 0.443,0.029 4.539,0 8.575,-8.873 9.062,-12.619 0.37,-2.84 -0.918,-5.693 -3.293,-7.338 l 0.948,-4.127 c 0.498,0.016 0.993,0.025 1.476,0.025 3.515,0 7.224,-0.414 11.026,-1.232 0.659,-0.143 1.339,-0.307 2.028,-0.488 l 1.757,3.904 c -1.903,2.047 -2.57,5.033 -1.699,7.672 1.084,3.283 6.211,10.75 10.593,10.75 0.387,0 0.762,-0.059 1.115,-0.176 1.938,-0.639 3.244,-3.123 3.676,-6.994 0.332,-2.967 0.097,-6.451 -0.571,-8.473 -0.898,-2.721 -3.297,-4.734 -6.149,-5.186 l -0.922,-4.076 c 0.583,-0.217 1.551,-0.578 1.551,-0.578 5.165,-1.936 10.501,-3.936 16.016,-4.242 l 0.081,3.975 c -2.591,1.148 -4.334,3.578 -4.569,6.393 -0.172,2.053 0.389,5.438 1.365,8.234 0.761,2.17 2.456,5.848 5.266,6.084 0.094,0.008 0.188,0.01 0.282,0.01 2.585,0 4.666,-2.803 5.956,-5.154 1.636,-2.979 2.533,-6.168 2.676,-7.871 0.239,-2.852 -1.178,-5.646 -3.625,-7.178 l 0.672,-3.678 c 3.118,0.758 6.195,1.932 9.176,3.068 1.853,0.705 3.766,1.434 5.699,2.07 l -0.519,4.322 c -2.726,0.775 -4.791,2.939 -5.417,5.695 -0.471,2.074 -0.372,5.564 0.241,8.49 0.801,3.811 2.339,6.158 4.331,6.609 0.256,0.057 0.515,0.086 0.769,0.086 4.409,0 9.081,-8.248 9.873,-11.73 0.635,-2.793 -0.381,-5.756 -2.59,-7.615 l 1.314,-3.967 c 2.208,0.312 4.437,0.473 6.628,0.473 1.929,0 3.828,-0.127 5.653,-0.373 l 1.429,4.039 c -2.102,1.902 -2.994,4.758 -2.331,7.506 0.851,3.545 5.502,11.605 9.974,11.605 0.28,0 0.554,-0.031 0.812,-0.094 1.986,-0.479 3.494,-2.846 4.247,-6.666 0.577,-2.93 0.633,-6.42 0.135,-8.49 -0.669,-2.787 -2.893,-4.992 -5.696,-5.678 l -0.603,-4.301 c 0.429,-0.176 0.848,-0.363 1.26,-0.557 11.145,14.527 21.67,26.342 32.573,36.586 -1.285,0.139 -2.663,0.234 -4.065,0.254 -0.237,0.004 -0.464,0.006 -0.693,0.006 -1.196,0 -2.447,-0.051 -3.719,-0.152 l -13.252,-1.053 7.854,10.725 c 2.804,3.828 5.58,7.537 8.336,11.143 -4.95,2.062 -10.223,2.926 -14.659,3.23 -1.327,0.09 -2.672,0.137 -3.992,0.137 -3.74,0 -7.557,-0.357 -11.343,-1.059 -5.081,-0.943 -10.001,-2.816 -14.771,-4.635 l -1.194,-0.455 c -6.386,-2.426 -13.228,-4.852 -20.497,-5.527 -1.075,-0.1 -2.185,-0.15 -3.3,-0.15 -6.873,0 -13.507,1.967 -17.899,3.447 -2.529,0.854 -5.062,1.803 -7.545,2.732 -4.19,1.57 -8.523,3.193 -12.936,4.371 -6.121,1.631 -12.243,2.457 -18.197,2.457 -1.345,0 -2.691,-0.041 -4.003,-0.123 -6.658,-0.424 -12.734,-2.506 -17.283,-4.273 -0.889,-0.346 -1.774,-0.701 -2.662,-1.059 l -0.307,-0.121 c -3.255,-1.311 -6.604,-2.648 -10.085,-3.527 0.985,-1.408 1.973,-2.828 2.964,-4.27 l 7.335,-10.656 z"
   id="path6" /><path
   d="m 329.36266,405.60492 10.524,-15.929 -17.805,6.888 c -3.947,1.526 -8.066,2.333 -12.247,2.398 l -0.344,0.003 c -0.291,0 -0.582,-0.005 -0.871,-0.012 12.095,-12.358 22.119,-25.988 29.665,-37.155 0.852,0.279 1.646,0.518 2.401,0.719 l -0.102,3.988 c -2.415,0.97 -4.174,3.216 -4.507,5.78 -0.249,1.906 0.129,5.083 0.918,7.725 0.618,2.065 2.048,5.581 4.691,5.925 0.14,0.019 0.281,0.028 0.421,0.028 4.257,0 8.041,-8.289 8.499,-11.788 0.345,-2.643 -0.846,-5.31 -3.043,-6.857 l 0.85,-3.7 c 0.439,0.014 0.875,0.021 1.301,0.021 3.264,0 6.712,-0.386 10.249,-1.146 0.582,-0.126 1.189,-0.272 1.812,-0.436 l 1.576,3.502 c -1.755,1.921 -2.367,4.708 -1.557,7.164 1.013,3.064 5.81,10.035 9.914,10.035 0.368,0 0.725,-0.057 1.061,-0.168 4.183,-1.382 4.096,-10.955 2.937,-14.465 -0.837,-2.531 -3.065,-4.419 -5.715,-4.859 l -0.826,-3.647 c 0.515,-0.191 1.367,-0.511 1.367,-0.511 4.755,-1.782 9.67,-3.624 14.741,-3.925 l 0.073,3.538 c -2.37,1.08 -4.024,3.404 -4.239,5.979 -0.161,1.916 0.362,5.072 1.272,7.677 0.712,2.034 2.304,5.48 4.971,5.704 0.087,0.006 0.174,0.01 0.26,0.01 4.332,0 7.795,-8.555 8.098,-12.166 0.221,-2.657 -1.091,-5.266 -3.354,-6.711 l 0.596,-3.262 c 2.844,0.7 5.672,1.777 8.409,2.821 l 0.049,0.018 c 1.677,0.64 3.408,1.3 5.175,1.883 l -0.464,3.881 c -2.531,0.741 -4.449,2.768 -5.031,5.333 -0.818,3.603 0.01,13.139 4.309,14.116 0.241,0.054 0.487,0.082 0.733,0.082 4.134,0 8.507,-7.702 9.246,-10.954 0.59,-2.6 -0.345,-5.367 -2.388,-7.113 l 0.886,-2.672 c 9.419,12.415 20.471,26.28 28.117,33.653 -0.53,0.033 -1.044,0.059 -1.523,0.072 -0.191,0.003 -0.377,0.005 -0.565,0.005 -5.187,0 -9.981,-0.932 -14.251,-2.768 l -19.763,-8.501 12.372,17.601 c 3.623,5.154 7.15,10.007 10.615,14.597 -2.952,1.242 -6.446,2.025 -10.278,2.287 -0.928,0.062 -1.863,0.096 -2.78,0.096 -2.606,0 -5.266,-0.248 -7.905,-0.738 -3.535,-0.656 -6.983,-1.969 -10.32,-3.24 l -0.84,-0.32 c -4.519,-1.717 -9.361,-3.434 -14.53,-3.915 -0.773,-0.071 -1.567,-0.107 -2.36,-0.107 -4.897,0 -9.608,1.397 -12.725,2.448 -1.78,0.602 -3.572,1.271 -5.322,1.926 -2.936,1.102 -5.971,2.24 -9.061,3.062 -4.273,1.139 -8.544,1.717 -12.696,1.717 -0.934,0 -1.873,-0.029 -2.79,-0.088 -4.632,-0.293 -8.865,-1.746 -12.036,-2.979 -0.694,-0.27 -1.387,-0.549 -2.082,-0.828 -0.426,-0.172 -0.886,-0.355 -1.365,-0.545 2.786,-3.995 5.317,-7.757 7.577,-11.177 z"
   id="path5" /><path
   d="m 336.36966,345.44392 c -1.264,0.328 -2.577,0.562 -3.922,0.697 5.514,-5.912 10.521,-12.252 15.21,-18.815 0.058,0.229 0.118,0.454 0.184,0.674 0.58,1.938 1.688,4.303 3.674,4.561 0.116,0.016 0.232,0.024 0.35,0.024 3.285,0 6.19,-6.287 6.538,-8.942 0.262,-2.013 -0.586,-3.991 -2.221,-5.214 l 0.547,-2.381 c 0.254,0.007 0.51,0.011 0.766,0.011 2.429,0 5,-0.287 7.641,-0.854 0.37,-0.079 0.755,-0.171 1.149,-0.271 l 1.014,2.254 c -1.292,1.497 -1.713,3.557 -1.095,5.427 0.767,2.321 4.424,7.601 7.576,7.601 0.298,0 0.589,-0.047 0.864,-0.137 3.293,-1.089 3.237,-8.279 2.332,-11.022 -0.637,-1.931 -2.259,-3.345 -4.262,-3.736 l -0.527,-2.328 0.812,-0.304 c 3.421,-1.281 6.955,-2.605 10.581,-2.871 l 0.047,2.197 c -1.777,0.871 -2.972,2.6 -3.136,4.562 -0.122,1.45 0.271,3.829 0.955,5.786 0.958,2.738 2.306,4.256 3.903,4.391 0.068,0.004 0.135,0.007 0.205,0.007 3.348,0 6.013,-6.494 6.241,-9.235 0.17,-2.024 -0.767,-3.961 -2.455,-5.106 l 0.362,-1.991 c 1.994,0.512 3.992,1.272 5.951,2.018 0.325,0.124 0.659,0.249 0.989,0.373 0.79,1.161 1.585,2.318 2.387,3.471 l -10e-4,0.012 c -1.905,0.614 -3.296,2.126 -3.739,4.083 -0.621,2.737 0.049,9.992 3.376,10.748 0.194,0.045 0.396,0.067 0.6,0.067 2.39,0 4.874,-3.299 6.199,-5.984 5.148,6.863 10.62,13.46 16.623,19.528 -3.043,0.863 -26.667,-6.54 -26.667,-6.54 0,0 6.278,8.898 14.627,20.064 -2.362,-0.649 -4.68,-1.529 -6.944,-2.392 l -0.78,-0.297 c -4.192,-1.595 -8.689,-3.189 -13.503,-3.637 -0.721,-0.068 -1.461,-0.103 -2.197,-0.103 -4.561,0 -8.94,1.3 -11.837,2.276 -1.662,0.562 -3.383,1.205 -4.901,1.773 l -0.076,0.029 c -2.716,1.017 -5.525,2.068 -8.363,2.824 -3.956,1.055 -7.912,1.59 -11.757,1.59 -0.87,0 -1.739,-0.027 -2.583,-0.081 -2.176,-0.138 -4.452,-0.565 -6.917,-1.295 0.988,-1.488 1.931,-2.926 2.821,-4.297 l 8.547,-13.159 z"
   id="path4" /><path
   d="m 367.69766,296.09192 c 2.832,-4.67 5.734,-9.457 8.693,-14.167 2.896,4.345 5.765,8.784 8.566,13.121 l 0.139,0.213 c 2.869,4.44 5.761,8.912 8.719,13.356 -2.329,-0.801 -4.773,-1.479 -7.341,-1.718 -0.534,-0.051 -1.09,-0.076 -1.65,-0.076 -3.41,0 -6.681,0.969 -8.844,1.697 -1.265,0.428 -2.545,0.908 -3.675,1.331 -2.011,0.754 -4.091,1.532 -6.185,2.091 -2.909,0.775 -5.816,1.168 -8.641,1.168 -0.092,0 -0.182,-0.003 -0.273,-0.004 3.598,-5.649 7.062,-11.357 10.492,-17.012 z"
   id="path3" /><path
   d="m 370.76266,243.56892 5.291,-2.378 2.378,-5.29 2.376,5.29 5.292,2.378 -5.292,2.377 -2.376,5.29 -2.378,-5.29 z"
   id="path2"
   style="display:inline" /><path
   style="opacity:0.345776;fill:#f4eed7"
   d="m 367.14976,316.90821 c -0.36232,0.88567 -0.72464,1.77134 -1.08696,2.65701"
   id="path22"
   inkscape:path-effect="#path-effect22"
   inkscape:original-d="m 367.14976,316.90821 c -0.36232,0.88567 -0.72464,1.77134 -1.08696,2.65701" /><path
   style="opacity:0.345776;fill:#f4eed7"
   d="m 367.27053,317.02899 c -1.00644,1.77133 -2.01288,3.54267 -1.16744,6.01855 0.84543,2.47587 3.54264,5.65616 5.53541,6.84375 1.99277,1.1876 3.28098,0.38247 4.56923,-0.42269"
   id="path23"
   inkscape:path-effect="#path-effect23"
   inkscape:original-d="m 367.27053,317.02899 c -1.00644,1.77133 -2.01288,3.54267 -3.01932,5.31401 2.69731,3.18041 5.39452,6.3607 8.09179,9.54106 1.28827,-0.80517 2.57648,-1.61031 3.86473,-2.41546" /><path
   style="opacity:0.345776;fill:#ff00ff"
   d="m 367.57246,317.59259 c -1.4694,1.24799 -2.5161,3.18036 -1.18756,5.99843 1.32854,2.81807 5.03217,6.5217 7.4879,6.76322 2.45573,0.24151 3.66343,-2.97904 3.86471,-5.938 0.20128,-2.95897 -0.60386,-5.65618 -1.59018,-7.14571 -0.98632,-1.48954 -2.15377,-1.77134 -3.68358,-1.63043 -1.52981,0.14091 -3.42188,0.7045 -4.89129,1.95249 z"
   id="path24"
   inkscape:path-effect="#path-effect24"
   inkscape:original-d="m 367.14976,316.90821 c -1.0467,1.93237 -2.0934,3.86474 -3.1401,5.7971 3.70378,3.70378 7.40741,7.40741 11.11111,11.11112 1.20776,-3.22068 2.41546,-6.44123 3.62319,-9.66184 -0.80517,-2.69732 -1.6103,-5.39453 -2.41546,-8.09179 -1.16749,-0.28181 -2.33494,-0.56361 -3.50241,-0.84541 -1.89215,0.56362 -3.78422,1.12722 -5.67633,1.69082 z"
   transform="matrix(1.0503497,0,0,1.0409145,-19.020524,-13.275265)" /><path
   style="opacity:0.345776;fill:#f4eed7"
   d="m 367.57246,317.59259 c -1.4694,1.24799 -2.5161,3.18036 -1.18756,5.99843 1.32854,2.81807 5.03217,6.5217 7.4879,6.76322 2.45573,0.24151 3.66343,-2.97904 3.86471,-5.938 0.20128,-2.95897 -0.60386,-5.65618 -1.59018,-7.14571 -0.98632,-1.48954 -2.15377,-1.77134 -3.68358,-1.63043 -1.52981,0.14091 -3.42188,0.7045 -4.89129,1.95249 z"
   id="path25"
   inkscape:path-effect="#path-effect26"
   inkscape:original-d="m 367.14976,316.90821 c -1.0467,1.93237 -2.0934,3.86474 -3.1401,5.7971 3.70378,3.70378 7.40741,7.40741 11.11111,11.11112 1.20776,-3.22068 2.41546,-6.44123 3.62319,-9.66184 -0.80517,-2.69732 -1.6103,-5.39453 -2.41546,-8.09179 -1.16749,-0.28181 -2.33494,-0.56361 -3.50241,-0.84541 -1.89215,0.56362 -3.78422,1.12722 -5.67633,1.69082 z"
   transform="rotate(29.497714,386.56355,346.56476)" /><path
   style="opacity:0.345776;fill:#000080"
   d="m 367.57246,317.59259 c -1.4694,1.24799 -2.5161,3.18036 -1.18756,5.99843 1.32854,2.81807 5.03217,6.5217 7.4879,6.76322 2.45573,0.24151 3.66343,-2.97904 3.86471,-5.938 0.20128,-2.95897 -0.60386,-5.65618 -1.59018,-7.14571 -0.98632,-1.48954 -2.15377,-1.77134 -3.68358,-1.63043 -1.52981,0.14091 -3.42188,0.7045 -4.89129,1.95249 z"
   id="path26"
   inkscape:path-effect="#path-effect28"
   inkscape:original-d="m 367.14976,316.90821 c -1.0467,1.93237 -2.0934,3.86474 -3.1401,5.7971 3.70378,3.70378 7.40741,7.40741 11.11111,11.11112 1.20776,-3.22068 2.41546,-6.44123 3.62319,-9.66184 -0.80517,-2.69732 -1.6103,-5.39453 -2.41546,-8.09179 -1.16749,-0.28181 -2.33494,-0.56361 -3.50241,-0.84541 -1.89215,0.56362 -3.78422,1.12722 -5.67633,1.69082 z"
   transform="matrix(1.0339458,0.32177274,-0.28847651,1.0236865,108.10785,-126.48481)" /><path
   style="opacity:0.345776;fill:#ff00ff"
   d="m 367.57246,317.59259 c -1.4694,1.24799 -2.5161,3.18036 -1.18756,5.99843 1.32854,2.81807 5.03217,6.5217 7.4879,6.76322 2.45573,0.24151 3.66343,-2.97904 3.86471,-5.938 0.20128,-2.95897 -0.60386,-5.65618 -1.59018,-7.14571 -0.98632,-1.48954 -2.15377,-1.77134 -3.68358,-1.63043 -1.52981,0.14091 -3.42188,0.7045 -4.89129,1.95249 z"
   id="path28"
   inkscape:path-effect="#path-effect30"
   inkscape:original-d="m 367.14976,316.90821 c -1.0467,1.93237 -2.0934,3.86474 -3.1401,5.7971 3.70378,3.70378 7.40741,7.40741 11.11111,11.11112 1.20776,-3.22068 2.41546,-6.44123 3.62319,-9.66184 -0.80517,-2.69732 -1.6103,-5.39453 -2.41546,-8.09179 -1.16749,-0.28181 -2.33494,-0.56361 -3.50241,-0.84541 -1.89215,0.56362 -3.78422,1.12722 -5.67633,1.69082 z"
   transform="matrix(0.85366185,0.5762407,-0.52082765,0.94448654,236.15176,-200.1572)" /><path
   style="opacity:0.345776;fill:#ff00ff"
   d="m 367.57246,317.59259 c -1.4694,1.24799 -2.5161,3.18036 -1.18756,5.99843 1.32854,2.81807 5.03217,6.5217 7.4879,6.76322 2.45573,0.24151 3.66343,-2.97904 3.86471,-5.938 0.20128,-2.95897 -0.60386,-5.65618 -1.59018,-7.14571 -0.98632,-1.48954 -2.15377,-1.77134 -3.68358,-1.63043 -1.52981,0.14091 -3.42188,0.7045 -4.89129,1.95249 z"
   id="path30"
   inkscape:path-effect="#path-effect32"
   inkscape:original-d="m 367.14976,316.90821 c -1.0467,1.93237 -2.0934,3.86474 -3.1401,5.7971 3.70378,3.70378 7.40741,7.40741 11.11111,11.11112 1.20776,-3.22068 2.41546,-6.44123 3.62319,-9.66184 -0.80517,-2.69732 -1.6103,-5.39453 -2.41546,-8.09179 -1.16749,-0.28181 -2.33494,-0.56361 -3.50241,-0.84541 -1.89215,0.56362 -3.78422,1.12722 -5.67633,1.69082 z"
   transform="matrix(0.62852685,0.83770476,-0.70954251,0.74604384,348.09058,-227.395)"
   inkscape:transform-center-x="-0.53354858"
   inkscape:transform-center-y="-3.1642942" /><path
   style="opacity:0.345776;fill:#ff00ff"
   d="m 367.57246,317.59259 c -1.4694,1.24799 -2.5161,3.18036 -1.18756,5.99843 1.32854,2.81807 5.03217,6.5217 7.4879,6.76322 2.45573,0.24151 3.66343,-2.97904 3.86471,-5.938 0.20128,-2.95897 -0.60386,-5.65618 -1.59018,-7.14571 -0.98632,-1.48954 -2.15377,-1.77134 -3.68358,-1.63043 -1.52981,0.14091 -3.42188,0.7045 -4.89129,1.95249 z"
   id="path32"
   inkscape:path-effect="#path-effect34"
   inkscape:original-d="m 367.14976,316.90821 c -1.0467,1.93237 -2.0934,3.86474 -3.1401,5.7971 3.70378,3.70378 7.40741,7.40741 11.11111,11.11112 1.20776,-3.22068 2.41546,-6.44123 3.62319,-9.66184 -0.80517,-2.69732 -1.6103,-5.39453 -2.41546,-8.09179 -1.16749,-0.28181 -2.33494,-0.56361 -3.50241,-0.84541 -1.89215,0.56362 -3.78422,1.12722 -5.67633,1.69082 z"
   transform="matrix(1.3927275,0,0,1.4173281,-148.72241,-84.248277)" /><path
   style="opacity:0.345776;fill:#ff00ff"
   d="m 367.57246,317.59259 c -1.4694,1.24799 -2.5161,3.18036 -1.18756,5.99843 1.32854,2.81807 5.03217,6.5217 7.4879,6.76322 2.45573,0.24151 3.66343,-2.97904 3.86471,-5.938 0.20128,-2.95897 -0.60386,-5.65618 -1.59018,-7.14571 -0.98632,-1.48954 -2.15377,-1.77134 -3.68358,-1.63043 -1.52981,0.14091 -3.42188,0.7045 -4.89129,1.95249 z"
   id="path34"
   inkscape:path-effect="#path-effect36"
   inkscape:original-d="m 367.14976,316.90821 c -1.0467,1.93237 -2.0934,3.86474 -3.1401,5.7971 3.70378,3.70378 7.40741,7.40741 11.11111,11.11112 1.20776,-3.22068 2.41546,-6.44123 3.62319,-9.66184 -0.80517,-2.69732 -1.6103,-5.39453 -2.41546,-8.09179 -1.16749,-0.28181 -2.33494,-0.56361 -3.50241,-0.84541 -1.89215,0.56362 -3.78422,1.12722 -5.67633,1.69082 z"
   transform="matrix(1.2206144,0.67066409,-0.68251044,1.2421749,154.30573,-282.68636)" /><path
   style="opacity:0.345776;fill:#ff00ff"
   d="m 367.57246,317.59259 c -1.4694,1.24799 -2.5161,3.18036 -1.18756,5.99843 1.32854,2.81807 5.03217,6.5217 7.4879,6.76322 2.45573,0.24151 3.66343,-2.97904 3.86471,-5.938 0.20128,-2.95897 -0.60386,-5.65618 -1.59018,-7.14571 -0.98632,-1.48954 -2.15377,-1.77134 -3.68358,-1.63043 -1.52981,0.14091 -3.42188,0.7045 -4.89129,1.95249 z"
   id="path36"
   inkscape:path-effect="#path-effect38"
   inkscape:original-d="m 367.14976,316.90821 c -1.0467,1.93237 -2.0934,3.86474 -3.1401,5.7971 3.70378,3.70378 7.40741,7.40741 11.11111,11.11112 1.20776,-3.22068 2.41546,-6.44123 3.62319,-9.66184 -0.80517,-2.69732 -1.6103,-5.39453 -2.41546,-8.09179 -1.16749,-0.28181 -2.33494,-0.56361 -3.50241,-0.84541 -1.89215,0.56362 -3.78422,1.12722 -5.67633,1.69082 z"
   transform="matrix(1.168327,0.75809086,-0.77148148,1.188964,221.73855,-292.04442)" /><path
   style="opacity:0.345776;fill:#ff00ff"
   d="m 367.57246,317.59259 c -1.4694,1.24799 -2.5161,3.18036 -1.18756,5.99843 1.32854,2.81807 5.03217,6.5217 7.4879,6.76322 2.45573,0.24151 3.66343,-2.97904 3.86471,-5.938 0.20128,-2.95897 -0.60386,-5.65618 -1.59018,-7.14571 -0.98632,-1.48954 -2.15377,-1.77134 -3.68358,-1.63043 -1.52981,0.14091 -3.42188,0.7045 -4.89129,1.95249 z"
   id="path38"
   inkscape:path-effect="#path-effect40"
   inkscape:original-d="m 367.14976,316.90821 c -1.0467,1.93237 -2.0934,3.86474 -3.1401,5.7971 3.70378,3.70378 7.40741,7.40741 11.11111,11.11112 1.20776,-3.22068 2.41546,-6.44123 3.62319,-9.66184 -0.80517,-2.69732 -1.6103,-5.39453 -2.41546,-8.09179 -1.16749,-0.28181 -2.33494,-0.56361 -3.50241,-0.84541 -1.89215,0.56362 -3.78422,1.12722 -5.67633,1.69082 z"
   transform="matrix(1.168327,0.75809086,-0.77148148,1.188964,157.00425,-290.11205)" /><path
   style="opacity:0.345776;fill:#ff00ff"
   d="m 367.57246,317.59259 c -1.4694,1.24799 -2.5161,3.18036 -1.18756,5.99843 1.32854,2.81807 5.03217,6.5217 7.4879,6.76322 2.45573,0.24151 3.66343,-2.97904 3.86471,-5.938 0.20128,-2.95897 -0.60386,-5.65618 -1.59018,-7.14571 -0.98632,-1.48954 -2.15377,-1.77134 -3.68358,-1.63043 -1.52981,0.14091 -3.42188,0.7045 -4.89129,1.95249 z"
   id="path40"
   inkscape:path-effect="#path-effect42"
   inkscape:original-d="m 367.14976,316.90821 c -1.0467,1.93237 -2.0934,3.86474 -3.1401,5.7971 3.70378,3.70378 7.40741,7.40741 11.11111,11.11112 1.20776,-3.22068 2.41546,-6.44123 3.62319,-9.66184 -0.80517,-2.69732 -1.6103,-5.39453 -2.41546,-8.09179 -1.16749,-0.28181 -2.33494,-0.56361 -3.50241,-0.84541 -1.89215,0.56362 -3.78422,1.12722 -5.67633,1.69082 z"
   transform="matrix(1.2198757,0.81096208,-0.80552062,1.2718854,187.5444,-283.33844)" /><path
   style="opacity:0.345776;fill:#ff00ff"
   d="m 367.57246,317.59259 c -1.4694,1.24799 -2.5161,3.18036 -1.18756,5.99843 1.32854,2.81807 5.03217,6.5217 7.4879,6.76322 2.45573,0.24151 3.66343,-2.97904 3.86471,-5.938 0.20128,-2.95897 -0.60386,-5.65618 -1.59018,-7.14571 -0.98632,-1.48954 -2.15377,-1.77134 -3.68358,-1.63043 -1.52981,0.14091 -3.42188,0.7045 -4.89129,1.95249 z"
   id="path42"
   inkscape:path-effect="#path-effect44"
   inkscape:original-d="m 367.14976,316.90821 c -1.0467,1.93237 -2.0934,3.86474 -3.1401,5.7971 3.70378,3.70378 7.40741,7.40741 11.11111,11.11112 1.20776,-3.22068 2.41546,-6.44123 3.62319,-9.66184 -0.80517,-2.69732 -1.6103,-5.39453 -2.41546,-8.09179 -1.16749,-0.28181 -2.33494,-0.56361 -3.50241,-0.84541 -1.89215,0.56362 -3.78422,1.12722 -5.67633,1.69082 z"
   transform="matrix(1.47903,0.04199951,0.03500468,1.5239661,-200.16612,-72.240266)" /><path
   style="opacity:0.345776;fill:#ff00ff"
   d="m 367.57246,317.59259 c -1.4694,1.24799 -2.5161,3.18036 -1.18756,5.99843 1.32854,2.81807 5.03217,6.5217 7.4879,6.76322 2.45573,0.24151 3.66343,-2.97904 3.86471,-5.938 0.20128,-2.95897 -0.60386,-5.65618 -1.59018,-7.14571 -0.98632,-1.48954 -2.15377,-1.77134 -3.68358,-1.63043 -1.52981,0.14091 -3.42188,0.7045 -4.89129,1.95249 z"
   id="path44"
   inkscape:path-effect="#path-effect46"
   inkscape:original-d="m 367.14976,316.90821 c -1.0467,1.93237 -2.0934,3.86474 -3.1401,5.7971 3.70378,3.70378 7.40741,7.40741 11.11111,11.11112 1.20776,-3.22068 2.41546,-6.44123 3.62319,-9.66184 -0.80517,-2.69732 -1.6103,-5.39453 -2.41546,-8.09179 -1.16749,-0.28181 -2.33494,-0.56361 -3.50241,-0.84541 -1.89215,0.56362 -3.78422,1.12722 -5.67633,1.69082 z"
   transform="matrix(1.081352,1.05232,-1.0562498,1.1375317,340.77174,-322.82214)" /><path
   style="opacity:0.345776;fill:#ff00ff"
   d="m 367.57246,317.59259 c -1.4694,1.24799 -2.5161,3.18036 -1.18756,5.99843 1.32854,2.81807 5.03217,6.5217 7.4879,6.76322 2.45573,0.24151 3.66343,-2.97904 3.86471,-5.938 0.20128,-2.95897 -0.60386,-5.65618 -1.59018,-7.14571 -0.98632,-1.48954 -2.15377,-1.77134 -3.68358,-1.63043 -1.52981,0.14091 -3.42188,0.7045 -4.89129,1.95249 z"
   id="path46"
   inkscape:path-effect="#path-effect48"
   inkscape:original-d="m 367.14976,316.90821 c -1.0467,1.93237 -2.0934,3.86474 -3.1401,5.7971 3.70378,3.70378 7.40741,7.40741 11.11111,11.11112 1.20776,-3.22068 2.41546,-6.44123 3.62319,-9.66184 -0.80517,-2.69732 -1.6103,-5.39453 -2.41546,-8.09179 -1.16749,-0.28181 -2.33494,-0.56361 -3.50241,-0.84541 -1.89215,0.56362 -3.78422,1.12722 -5.67633,1.69082 z"
   transform="matrix(1.3830319,0.5827771,-0.60381321,1.3958757,12.610094,-229.48298)" /><path
   style="opacity:0.345776;fill:#ff00ff"
   d="m 367.57246,317.59259 c -1.4694,1.24799 -2.5161,3.18036 -1.18756,5.99843 1.32854,2.81807 5.03217,6.5217 7.4879,6.76322 2.45573,0.24151 3.66343,-2.97904 3.86471,-5.938 0.20128,-2.95897 -0.60386,-5.65618 -1.59018,-7.14571 -0.98632,-1.48954 -2.15377,-1.77134 -3.68358,-1.63043 -1.52981,0.14091 -3.42188,0.7045 -4.89129,1.95249 z"
   id="path48"
   inkscape:path-effect="#path-effect50"
   inkscape:original-d="m 367.14976,316.90821 c -1.0467,1.93237 -2.0934,3.86474 -3.1401,5.7971 3.70378,3.70378 7.40741,7.40741 11.11111,11.11112 1.20776,-3.22068 2.41546,-6.44123 3.62319,-9.66184 -0.80517,-2.69732 -1.6103,-5.39453 -2.41546,-8.09179 -1.16749,-0.28181 -2.33494,-0.56361 -3.50241,-0.84541 -1.89215,0.56362 -3.78422,1.12722 -5.67633,1.69082 z"
   transform="matrix(0.46738378,1.2736935,-0.99005174,0.83410242,458.87862,-310.03559)" /><path
   style="opacity:0.345776;fill:#ff00ff"
   d="m 367.57246,317.59259 c -1.4694,1.24799 -2.5161,3.18036 -1.18756,5.99843 1.32854,2.81807 5.03217,6.5217 7.4879,6.76322 2.45573,0.24151 3.66343,-2.97904 3.86471,-5.938 0.20128,-2.95897 -0.60386,-5.65618 -1.59018,-7.14571 -0.98632,-1.48954 -2.15377,-1.77134 -3.68358,-1.63043 -1.52981,0.14091 -3.42188,0.7045 -4.89129,1.95249 z"
   id="path50"
   inkscape:path-effect="#path-effect52"
   inkscape:original-d="m 367.14976,316.90821 c -1.0467,1.93237 -2.0934,3.86474 -3.1401,5.7971 3.70378,3.70378 7.40741,7.40741 11.11111,11.11112 1.20776,-3.22068 2.41546,-6.44123 3.62319,-9.66184 -0.80517,-2.69732 -1.6103,-5.39453 -2.41546,-8.09179 -1.16749,-0.28181 -2.33494,-0.56361 -3.50241,-0.84541 -1.89215,0.56362 -3.78422,1.12722 -5.67633,1.69082 z"
   transform="matrix(1.4644736,0.03276212,-3.4678002e-4,1.5055085,-115.8764,-62.039313)" /><path
   style="opacity:0.345776;fill:#ff00ff"
   d="m 367.57246,317.59259 c -1.4694,1.24799 -2.5161,3.18036 -1.18756,5.99843 1.32854,2.81807 5.03217,6.5217 7.4879,6.76322 2.45573,0.24151 3.66343,-2.97904 3.86471,-5.938 0.20128,-2.95897 -0.60386,-5.65618 -1.59018,-7.14571 -0.98632,-1.48954 -2.15377,-1.77134 -3.68358,-1.63043 -1.52981,0.14091 -3.42188,0.7045 -4.89129,1.95249 z"
   id="path52"
   inkscape:path-effect="#path-effect54"
   inkscape:original-d="m 367.14976,316.90821 c -1.0467,1.93237 -2.0934,3.86474 -3.1401,5.7971 3.70378,3.70378 7.40741,7.40741 11.11111,11.11112 1.20776,-3.22068 2.41546,-6.44123 3.62319,-9.66184 -0.80517,-2.69732 -1.6103,-5.39453 -2.41546,-8.09179 -1.16749,-0.28181 -2.33494,-0.56361 -3.50241,-0.84541 -1.89215,0.56362 -3.78422,1.12722 -5.67633,1.69082 z"
   transform="matrix(1.7441139,1.0237283,-1.038663,1.8436801,76.471876,-481.89324)" /><path
   style="opacity:0.345776;fill:#ff00ff"
   d="m 367.57246,317.59259 c -1.4694,1.24799 -2.5161,3.18036 -1.18756,5.99843 1.32854,2.81807 5.03217,6.5217 7.4879,6.76322 2.45573,0.24151 3.66343,-2.97904 3.86471,-5.938 0.20128,-2.95897 -0.60386,-5.65618 -1.59018,-7.14571 -0.98632,-1.48954 -2.15377,-1.77134 -3.68358,-1.63043 -1.52981,0.14091 -3.42188,0.7045 -4.89129,1.95249 z"
   id="path54"
   inkscape:path-effect="#path-effect56"
   inkscape:original-d="m 367.14976,316.90821 c -1.0467,1.93237 -2.0934,3.86474 -3.1401,5.7971 3.70378,3.70378 7.40741,7.40741 11.11111,11.11112 1.20776,-3.22068 2.41546,-6.44123 3.62319,-9.66184 -0.80517,-2.69732 -1.6103,-5.39453 -2.41546,-8.09179 -1.16749,-0.28181 -2.33494,-0.56361 -3.50241,-0.84541 -1.89215,0.56362 -3.78422,1.12722 -5.67633,1.69082 z"
   transform="matrix(1.7441139,1.0237283,-1.038663,1.8436801,106.30279,-472.47295)" /><path
   style="opacity:0.345776;fill:#ff00ff"
   d="m 367.57246,317.59259 c -1.4694,1.24799 -2.5161,3.18036 -1.18756,5.99843 1.32854,2.81807 5.03217,6.5217 7.4879,6.76322 2.45573,0.24151 3.66343,-2.97904 3.86471,-5.938 0.20128,-2.95897 -0.60386,-5.65618 -1.59018,-7.14571 -0.98632,-1.48954 -2.15377,-1.77134 -3.68358,-1.63043 -1.52981,0.14091 -3.42188,0.7045 -4.89129,1.95249 z"
   id="path56"
   inkscape:path-effect="#path-effect58"
   inkscape:original-d="m 367.14976,316.90821 c -1.0467,1.93237 -2.0934,3.86474 -3.1401,5.7971 3.70378,3.70378 7.40741,7.40741 11.11111,11.11112 1.20776,-3.22068 2.41546,-6.44123 3.62319,-9.66184 -0.80517,-2.69732 -1.6103,-5.39453 -2.41546,-8.09179 -1.16749,-0.28181 -2.33494,-0.56361 -3.50241,-0.84541 -1.89215,0.56362 -3.78422,1.12722 -5.67633,1.69082 z"
   transform="matrix(2.0007111,0.29514074,-0.27165617,2.0986138,-198.80916,-283.7003)" /><path
   style="opacity:0.345776;fill:#ff00ff"
   d="m 367.57246,317.59259 c -1.4694,1.24799 -2.5161,3.18036 -1.18756,5.99843 1.32854,2.81807 5.03217,6.5217 7.4879,6.76322 2.45573,0.24151 3.66343,-2.97904 3.86471,-5.938 0.20128,-2.95897 -0.60386,-5.65618 -1.59018,-7.14571 -0.98632,-1.48954 -2.15377,-1.77134 -3.68358,-1.63043 -1.52981,0.14091 -3.42188,0.7045 -4.89129,1.95249 z"
   id="path58"
   inkscape:path-effect="#path-effect60"
   inkscape:original-d="m 367.14976,316.90821 c -1.0467,1.93237 -2.0934,3.86474 -3.1401,5.7971 3.70378,3.70378 7.40741,7.40741 11.11111,11.11112 1.20776,-3.22068 2.41546,-6.44123 3.62319,-9.66184 -0.80517,-2.69732 -1.6103,-5.39453 -2.41546,-8.09179 -1.16749,-0.28181 -2.33494,-0.56361 -3.50241,-0.84541 -1.89215,0.56362 -3.78422,1.12722 -5.67633,1.69082 z"
   transform="matrix(2.0212808,0.06615778,-0.03171324,2.1158855,-380.35561,-206.21451)" /><path
   style="opacity:0.345776;fill:#ff00ff"
   d="m 367.57246,317.59259 c -1.4694,1.24799 -2.5161,3.18036 -1.18756,5.99843 1.32854,2.81807 5.03217,6.5217 7.4879,6.76322 2.45573,0.24151 3.66343,-2.97904 3.86471,-5.938 0.20128,-2.95897 -0.60386,-5.65618 -1.59018,-7.14571 -0.98632,-1.48954 -2.15377,-1.77134 -3.68358,-1.63043 -1.52981,0.14091 -3.42188,0.7045 -4.89129,1.95249 z"
   id="path60"
   inkscape:path-effect="#path-effect62"
   inkscape:original-d="m 367.14976,316.90821 c -1.0467,1.93237 -2.0934,3.86474 -3.1401,5.7971 3.70378,3.70378 7.40741,7.40741 11.11111,11.11112 1.20776,-3.22068 2.41546,-6.44123 3.62319,-9.66184 -0.80517,-2.69732 -1.6103,-5.39453 -2.41546,-8.09179 -1.16749,-0.28181 -2.33494,-0.56361 -3.50241,-0.84541 -1.89215,0.56362 -3.78422,1.12722 -5.67633,1.69082 z"
   transform="matrix(1.7879015,0.94517793,-0.95567145,1.8880332,-35.810185,-455.1866)" /><path
   style="opacity:0.345776;fill:#ff00ff"
   d="m 367.57246,317.59259 c -1.4694,1.24799 -2.5161,3.18036 -1.18756,5.99843 1.32854,2.81807 5.03217,6.5217 7.4879,6.76322 2.45573,0.24151 3.66343,-2.97904 3.86471,-5.938 0.20128,-2.95897 -0.60386,-5.65618 -1.59018,-7.14571 -0.98632,-1.48954 -2.15377,-1.77134 -3.68358,-1.63043 -1.52981,0.14091 -3.42188,0.7045 -4.89129,1.95249 z"
   id="path62"
   inkscape:path-effect="#path-effect64"
   inkscape:original-d="m 367.14976,316.90821 c -1.0467,1.93237 -2.0934,3.86474 -3.1401,5.7971 3.70378,3.70378 7.40741,7.40741 11.11111,11.11112 1.20776,-3.22068 2.41546,-6.44123 3.62319,-9.66184 -0.80517,-2.69732 -1.6103,-5.39453 -2.41546,-8.09179 -1.16749,-0.28181 -2.33494,-0.56361 -3.50241,-0.84541 -1.89215,0.56362 -3.78422,1.12722 -5.67633,1.69082 z"
   transform="matrix(1.6413524,0.91599927,-0.87733782,1.8297476,-36.935305,-434.78055)" /><path
   style="opacity:0.345776;fill:#ff00ff"
   d="m 350.84541,313.16425 c 0,0 4.57095,0.139 6.82367,-0.18116 6.69464,-0.95145 14.10154,-3.17307 19.62561,-5.13284 5.10899,-1.81252 11.0821,-1.38476 16.30435,0.12076 4.41198,1.27193 8.51573,4.01281 11.71497,7.24638 0.48714,0.49236 -1.26812,2.2343 -1.26812,2.2343 l -3.38164,-0.66425 -1.87198,-0.54348 -2.05314,-2.95894 -6.64251,-2.83816 -0.60387,1.87198 -6.09903,-0.36232 c 0,0 0.62398,-1.95282 -0.0604,-1.93236 -2.62004,0.0783 -11.11111,3.01932 -11.11111,3.01932 l 0.66425,2.2343 -5.85749,1.81159 c 0,0 -0.31761,-1.71785 -0.96618,-1.69082 -2.70814,0.11284 -9.23912,1.08696 -9.23912,1.08696 l -0.42272,1.81159 c 0,0 -4.67831,-0.51195 -7.18599,-0.4227 -2.65343,0.0944 1.63044,-4.71015 1.63044,-4.71015 z"
   id="path65"
   sodipodi:nodetypes="casascccccccscccsccsc" /><path
   style="opacity:0.345776;fill:#ff00ff"
   d="m 334.4277,357.87816 c 0,0 3.93524,0.76092 5.92443,0.98755 4.84446,0.55192 9.91562,1.73716 14.59956,0.90203 5.23963,-0.93421 10.44371,-2.28046 15.4162,-4.26235 4.48409,-1.78723 8.78768,-3.63025 13.44854,-3.93534 4.71568,-0.30868 9.64055,0.76381 14.00966,2.17391 4.14405,1.33746 8.37694,2.96114 12.31884,4.34783 2.44144,0.85885 7.48792,2.05314 7.48792,2.05314 l -3.74411,3.20037 -0.84526,2.35518 -7.12561,-1.44927 0.4831,-3.50242 c -0.0521,0.37769 -13.3221,-4.86698 -13.41324,-4.36826 l -0.50352,2.75547 -7.09774,-0.56112 -0.36232,-3.26087 c -0.0639,-0.57529 -15.72834,4.26979 -15.72834,4.26979 l 0.87327,4.30509 -7.23337,2.01784 -1.22073,-3.46712 c -0.10498,-0.29817 -9.46678,2.28212 -13.09922,1.41398 -0.3605,-0.0862 -1.15199,3.90003 -1.15199,3.90003 l -7.12561,-1.3285 0.24155,-3.74396 -7.73407,-2.39093 z"
   id="path66"
   sodipodi:nodetypes="cassassccccssccscccssccccc" /><path
   style="opacity:0.345776;fill:#677821"
   d="m 317.0336,414.26317 c 0,0 3.30003,1.7042 5.01768,2.4035 3.66758,1.49316 7.34548,3.16192 11.25184,3.81077 4.39432,0.72991 8.9519,0.65194 13.36355,0.0353 5.6082,-0.78382 10.88097,-3.14163 16.32478,-4.70085 4.8983,-1.40297 9.61449,-3.88714 14.70086,-4.18804 4.83928,-0.28629 9.65717,1.12714 14.35897,2.30769 5.46014,1.37096 10.43039,4.47458 15.96303,5.51502 4.08594,0.76838 8.32943,0.93248 12.46313,0.48777 2.85047,-0.30665 5.5733,-1.35541 8.32598,-2.15663 1.83939,-0.53539 5.46789,-1.76982 5.46789,-1.76982 l 2.05348,2.70999 -5.21368,2.05128 -1.23931,0.55555 0.76923,4.10258 -7.64958,2.30769 -1.45299,-4.31625 c 0.54311,1.61335 -11.76205,0.12628 -11.92308,0.47009 l -1.32478,3.37607 -7.56411,-1.7094 0.42735,-3.71795 c 0.0592,-0.51527 -14.44206,-5.64596 -14.61538,-4.87179 l -0.34187,2.94871 -8.07693,-0.68376 0.34188,-3.29059 c 0.0827,-0.79624 -17.45878,4.1475 -17.35043,4.61538 l 0.94017,4.05982 -7.30769,2.39317 -1.5812,-3.50428 c -0.20341,-0.4508 -14.84997,2.76417 -14.52991,1.36752 l -0.94017,4.10257 -7.60684,-1.11111 c 0,0 0.45006,-4.43529 0.25641,-4.44445 -2.12116,-0.10031 -11.04415,-2.87682 -10.51282,-3.58974 l -3.37607,4.52991 c 0,0 -5.10179,-2.15336 -4.60286,-2.85072 z"
   id="path67"
   sodipodi:nodetypes="caaaaaaaaaccccccssccssccssccssccsscsc" /><path
   style="opacity:0.345776;fill:#677821;stroke-width:1.36813"
   d="m 291.19726,473.13808 c 0,0 4.25168,0.099 6.32087,0.53417 6.33255,1.33191 12.22809,4.28313 18.36387,6.29634 5.90432,1.93727 13.31917,2.64061 20.02091,2.2239 8.23813,-0.51223 16.89171,-2.88244 24.08253,-5.76139 6.76592,-2.70883 14.75778,-5.2868 22.03294,-6.4768 6.62918,-1.08433 13.76884,0.0553 20.07683,1.73688 8.02011,2.13797 15.47557,6.14075 23.59255,7.77893 6.04395,1.2198 12.49862,2.11895 18.43859,1.4745 4.58457,-0.4974 9.05028,-1.56602 13.45711,-2.82664 1.90175,-0.54402 5.57392,-2.03591 5.57392,-2.03591 l 2.98123,3.78634 -5.79773,1.58188 -1.69682,0.70612 0.96186,6.53908 -9.25664,2.63411 -2.26784,-6.34068 c 0.44337,1.23961 -18.24728,0.70365 -17.94241,-0.17156 l -2.16449,6.21382 -9.9853,-1.87366 1.14202,-6.81925 c -0.0695,0.41519 -21.14174,-8.04239 -21.73617,-7.21771 l -0.97341,5.67061 -10.35594,-0.44184 0.41801,-6.57513 c 0.0647,-1.01732 -25.58649,6.45911 -25.46471,7.06269 l 1.21357,6.01475 -9.13769,3.04183 -2.71301,-5.65042 c 0.60642,1.263 -21.15524,3.27445 -20.96942,2.50724 l -1.46995,6.06909 -9.79185,-1.02775 c 0,0 0.32095,-6.79106 0.0358,-6.80271 -3.12361,-0.1275 -21.90735,-8.44653 -22.01814,-7.25445 l -0.57087,6.14228 c 0,0 -11.63769,-0.68081 -10.96523,-1.61532 z"
   id="path68"
   sodipodi:nodetypes="casasssasaccccccssccssccssccssccsscsc" /></svg>
